<?xml version="1.0" standalone="no"?>
<!DOCTYPE svg PUBLIC "-//W3C//DTD SVG 20010904//EN"
 "http://www.w3.org/TR/2001/REC-SVG-20010904/DTD/svg10.dtd">
<svg version="1.0" xmlns="http://www.w3.org/2000/svg"
 width="1000.000000pt" height="950.000000pt" viewBox="0 0 1000.000000 950.000000"
 preserveAspectRatio="xMidYMid meet">

<g transform="translate(0.000000,950.000000) scale(0.100000,-0.100000)"
fill="#000000" stroke="none">
<path d="M4430 8169 c-221 -20 -457 -87 -666 -188 -374 -183 -662 -471 -848
-846 -148 -297 -212 -598 -198 -923 7 -166 22 -117 22 72 0 437 130 807 405
1161 83 106 259 274 376 357 119 86 361 206 504 252 582 184 1195 83 1685
-278 153 -112 335 -303 432 -453 22 -35 45 -60 51 -56 6 3 7 1 3 -5 -7 -12 51
-121 90 -167 l25 -30 -12 28 c-7 15 -16 27 -21 27 -5 0 -6 5 -2 12 5 7 3 8 -6
3 -10 -6 -12 -4 -7 9 5 11 3 15 -4 10 -7 -4 -10 -1 -7 7 12 33 -126 245 -254
389 -157 178 -341 316 -573 431 -224 110 -426 167 -678 189 -126 11 -181 11
-317 -1z"/>
<path d="M3345 8084 l-30 -26 33 22 c17 12 32 23 32 26 0 7 -4 5 -35 -22z"/>
<path d="M5880 8066 c0 -2 8 -10 18 -17 15 -13 16 -12 3 4 -13 16 -21 21 -21
13z"/>
<path d="M3289 8043 c-13 -16 -12 -17 4 -4 16 13 21 21 13 21 -2 0 -10 -8 -17
-17z"/>
<path d="M5920 8036 c0 -2 8 -10 18 -17 15 -13 16 -12 3 4 -13 16 -21 21 -21
13z"/>
<path d="M3244 8008 l-19 -23 23 19 c21 18 27 26 19 26 -2 0 -12 -10 -23 -22z"/>
<path d="M5975 7990 c10 -11 20 -20 23 -20 3 0 -3 9 -13 20 -10 11 -20 20 -23
20 -3 0 3 -9 13 -20z"/>
<path d="M3189 7963 l-24 -28 28 24 c25 23 32 31 24 31 -2 0 -14 -12 -28 -27z"/>
<path d="M6020 7957 c0 -2 15 -16 33 -33 l32 -29 -29 33 c-28 30 -36 37 -36
29z"/>
<path d="M3054 7838 c-55 -57 -118 -125 -140 -153 -59 -73 -97 -125 -92 -125
3 0 33 37 68 83 35 45 111 130 169 190 57 59 102 107 99 107 -2 0 -49 -46
-104 -102z"/>
<path d="M6225 7750 c21 -22 41 -40 44 -40 3 0 -13 18 -34 40 -21 22 -41 40
-44 40 -3 0 13 -18 34 -40z"/>
<path d="M6285 7680 c10 -11 20 -20 23 -20 3 0 -3 9 -13 20 -10 11 -20 20 -23
20 -3 0 3 -9 13 -20z"/>
<path d="M6325 7630 c10 -11 20 -20 23 -20 3 0 -3 9 -13 20 -10 11 -20 20 -23
20 -3 0 3 -9 13 -20z"/>
<path d="M6370 7566 c0 -2 8 -10 18 -17 15 -13 16 -12 3 4 -13 16 -21 21 -21
13z"/>
<path d="M2792 7523 c-26 -38 -34 -53 -29 -53 2 0 16 18 31 40 29 45 28 56 -2
13z"/>
<path d="M2740 7440 c-6 -11 -8 -20 -6 -20 3 0 10 9 16 20 6 11 8 20 6 20 -3
0 -10 -9 -16 -20z"/>
<path d="M2710 7390 c-6 -11 -8 -20 -6 -20 3 0 10 9 16 20 6 11 8 20 6 20 -3
0 -10 -9 -16 -20z"/>
<path d="M2654 7289 c-14 -28 -24 -53 -22 -55 2 -2 16 21 31 51 15 30 25 55
22 55 -3 0 -16 -23 -31 -51z"/>
<path d="M2596 7165 c-9 -26 -7 -32 5 -12 6 10 9 21 6 23 -2 3 -7 -2 -11 -11z"/>
<path d="M6306 7051 c-8 -12 3 -41 15 -41 5 0 9 5 9 10 0 6 -5 10 -11 10 -6 0
-9 7 -5 15 6 16 1 20 -8 6z"/>
<path d="M6340 6976 c0 -8 4 -17 9 -20 5 -4 7 3 4 14 -6 23 -13 26 -13 6z"/>
<path d="M2487 6848 c-9 -37 -17 -73 -16 -80 0 -7 9 19 20 57 10 39 17 74 16
80 -2 5 -11 -21 -20 -57z"/>
<path d="M2461 6734 c0 -11 3 -14 6 -6 3 7 2 16 -1 19 -3 4 -6 -2 -5 -13z"/>
<path d="M2451 6684 c0 -11 3 -14 6 -6 3 7 2 16 -1 19 -3 4 -6 -2 -5 -13z"/>
<path d="M2441 6624 c0 -11 3 -14 6 -6 3 7 2 16 -1 19 -3 4 -6 -2 -5 -13z"/>
<path d="M2432 6545 c0 -16 2 -22 5 -12 2 9 2 23 0 30 -3 6 -5 -1 -5 -18z"/>
<path d="M2422 6430 c0 -19 2 -27 5 -17 2 9 2 25 0 35 -3 9 -5 1 -5 -18z"/>
<path d="M2422 6180 c0 -14 2 -19 5 -12 2 6 2 18 0 25 -3 6 -5 1 -5 -13z"/>
<path d="M2736 6094 c-9 -23 -7 -66 2 -60 8 5 16 76 8 76 -2 0 -7 -7 -10 -16z"/>
<path d="M2431 6054 c0 -11 3 -14 6 -6 3 7 2 16 -1 19 -3 4 -6 -2 -5 -13z"/>
<path d="M2740 5994 c0 -14 4 -23 9 -19 11 6 10 45 -1 45 -4 0 -8 -12 -8 -26z"/>
<path d="M2751 5933 c0 -25 1 -26 9 -8 12 27 12 35 0 35 -5 0 -10 -12 -9 -27z"/>
<path d="M2775 5850 c-3 -5 -1 -10 4 -10 6 0 11 5 11 10 0 6 -2 10 -4 10 -3 0
-8 -4 -11 -10z"/>
<path d="M2781 5804 c0 -11 3 -14 6 -6 3 7 2 16 -1 19 -3 4 -6 -2 -5 -13z"/>
<path d="M2560 5525 c0 -5 5 -17 10 -25 5 -8 10 -10 10 -5 0 6 -5 17 -10 25
-5 8 -10 11 -10 5z"/>
<path d="M2580 5475 c0 -5 5 -17 10 -25 5 -8 10 -10 10 -5 0 6 -5 17 -10 25
-5 8 -10 11 -10 5z"/>
<path d="M5170 5388 c-255 -119 -752 -218 -1315 -263 -121 -9 -142 -13 -86
-14 41 0 72 -3 69 -6 -3 -3 -41 -10 -84 -15 -74 -8 -73 -9 31 -4 177 8 606 61
765 94 25 5 51 9 58 10 9 0 12 -32 12 -129 0 -94 -3 -131 -12 -134 -38 -15 50
-3 135 18 54 14 101 25 105 25 4 0 0 5 -8 10 -13 9 -13 10 0 10 13 0 13 1 0
10 -8 5 -10 10 -5 10 11 0 13 199 2 217 -8 13 19 26 173 83 112 41 230 95 230
105 0 6 7 9 -70 -27z"/>
<path d="M2610 5407 c0 -19 103 -208 169 -309 l70 -108 -133 0 c-478 0 -1085
74 -1436 175 -63 18 -116 32 -118 30 -9 -8 307 -104 428 -130 100 -21 439 -72
592 -90 118 -13 489 -43 583 -46 29 -1 30 -1 5 -9 -21 -7 -22 -8 -5 -10 l20
-1 -20 -9 c-19 -8 -18 -9 5 -11 21 -1 19 -3 -10 -9 -29 -6 -30 -8 -10 -9 23
-1 26 -5 23 -33 -10 -126 -9 -157 6 -162 31 -10 -388 4 -549 18 -290 27 -463
55 -737 122 -404 98 -613 223 -613 365 l0 32 -26 -24 c-60 -56 -72 -138 -29
-201 59 -87 259 -185 515 -252 420 -110 963 -166 1609 -166 l324 0 51 -39
c260 -200 694 -369 1046 -407 49 -5 59 -9 42 -15 -22 -8 -28 -20 -16 -32 4 -4
6 -45 5 -92 -2 -64 1 -85 11 -85 9 0 9 -3 -2 -10 -13 -9 -13 -10 0 -10 13 0
13 -1 0 -10 -13 -9 -13 -11 0 -20 13 -9 13 -10 0 -11 -8 0 -4 -4 10 -8 19 -6
-5 -13 -95 -29 -446 -82 -828 -107 -1489 -99 -434 5 -562 12 -841 42 -287 32
-591 90 -775 150 -41 13 -84 27 -95 30 -59 19 21 -17 100 -45 321 -113 801
-193 1390 -230 93 -6 171 -13 174 -16 2 -2 -8 -4 -22 -4 -15 0 -27 -4 -27 -10
0 -5 8 -10 19 -10 16 0 18 -6 15 -42 -13 -164 -13 -177 10 -182 34 -8 -337 3
-479 14 -505 40 -1006 150 -1239 273 -68 36 -150 107 -171 148 -8 15 -15 44
-15 63 0 45 -17 40 -53 -16 -35 -54 -37 -121 -4 -165 139 -189 660 -333 1437
-399 259 -21 910 -30 1195 -15 787 41 1348 155 1605 326 85 56 120 105 120
167 0 45 -31 107 -67 133 -11 8 -14 28 -11 82 3 63 1 70 -12 59 -35 -30 -91
-58 -88 -45 2 8 16 19 33 25 l30 11 -28 7 c-27 6 -28 9 -22 46 6 34 4 40 -12
41 -10 0 24 12 76 25 52 13 97 27 100 30 3 4 -5 4 -19 0 -14 -4 -83 -19 -155
-34 -122 -25 -147 -26 -405 -26 -261 0 -282 1 -410 28 -660 135 -1212 550
-1522 1141 -32 61 -58 106 -58 102z m1097 -1744 c-21 -3 -35 -8 -31 -14 3 -6
5 -59 5 -119 l-1 -109 32 -4 c23 -3 16 -4 -20 -5 l-53 -2 2 118 3 117 -50 5
-49 4 60 6 c33 4 78 7 100 7 l40 0 -38 -4z m23 -145 c0 -45 -3 -59 -10 -48
-13 20 -13 110 0 110 6 0 10 -27 10 -62z"/>
<path d="M6146 5137 c3 -10 9 -15 12 -12 3 3 0 11 -7 18 -10 9 -11 8 -5 -6z"/>
<path d="M6119 5113 c-13 -16 -12 -17 4 -4 9 7 17 15 17 17 0 8 -8 3 -21 -13z"/>
<path d="M3588 5103 c17 -2 47 -2 65 0 17 2 3 4 -33 4 -36 0 -50 -2 -32 -4z"/>
<path d="M6079 5063 c-13 -16 -12 -17 4 -4 9 7 17 15 17 17 0 8 -8 3 -21 -13z"/>
<path d="M6246 5067 c3 -10 9 -15 12 -12 3 3 0 11 -7 18 -10 9 -11 8 -5 -6z"/>
<path d="M6299 5053 c-13 -16 -12 -17 4 -4 9 7 17 15 17 17 0 8 -8 3 -21 -13z"/>
<path d="M6339 4993 c-23 -32 -35 -52 -25 -44 18 15 80 101 73 101 -3 0 -24
-26 -48 -57z"/>
<path d="M6190 4818 c-91 -96 -187 -184 -305 -277 l-30 -23 30 18 c62 36 153
112 241 200 82 83 181 194 172 194 -1 0 -50 -51 -108 -112z"/>
<path d="M5497 4721 c-41 -26 -46 -36 -10 -17 17 9 35 20 38 26 8 13 6 12 -28
-9z"/>
<path d="M5315 4629 c-22 -10 -29 -16 -15 -13 28 7 80 33 65 33 -5 0 -28 -9
-50 -20z"/>
<path d="M6135 4605 c-16 -13 -36 -24 -42 -25 -7 0 -13 -4 -13 -10 0 -5 -6
-10 -13 -10 -8 0 -19 -11 -25 -25 -10 -22 -8 -29 16 -54 25 -27 29 -28 57 -16
17 7 52 31 78 55 l48 42 -26 24 c-14 13 -25 28 -25 34 0 17 -23 11 -55 -15z"/>
<path d="M6804 4601 c17 -19 17 -22 -10 -70 -15 -28 -57 -90 -94 -138 -36 -49
-68 -92 -71 -98 -2 -5 -7 -9 -10 -8 -3 1 -31 -18 -63 -43 -31 -25 -61 -42 -66
-39 -5 3 -12 0 -16 -6 -5 -8 -3 -9 6 -4 9 5 11 4 6 -3 -5 -9 -15 -7 -34 5 -27
17 -27 17 -9 -3 17 -21 17 -22 -17 -47 -19 -15 -46 -32 -60 -38 -24 -11 -29
-9 -62 29 -20 23 -41 42 -47 42 -7 -1 2 -12 18 -25 22 -18 29 -32 27 -51 -3
-22 10 -41 80 -108 45 -45 569 -554 1163 -1131 594 -577 1157 -1125 1250
-1216 105 -103 182 -170 198 -175 84 -20 190 20 302 114 158 134 249 303 216
404 -13 39 30 -4 -996 993 -401 390 -809 786 -905 881 -613 600 -776 754 -799
754 -23 0 -23 -1 -7 -19z m243 -368 c136 -132 307 -299 380 -370 72 -70 245
-238 383 -373 139 -135 368 -358 509 -496 141 -138 272 -266 291 -284 19 -18
168 -162 330 -320 329 -320 452 -439 505 -489 20 -18 35 -40 33 -48 -4 -20
-23 -12 -20 9 2 9 -2 19 -7 23 -6 3 -9 0 -6 -7 3 -8 -84 73 -192 179 -109 106
-274 266 -366 356 -93 89 -245 236 -337 327 -93 91 -249 243 -347 337 -98 95
-275 267 -393 383 -118 115 -307 300 -420 410 -113 109 -258 251 -323 315 -66
63 -123 115 -128 115 -5 0 -9 6 -9 14 0 7 -10 21 -22 29 -46 31 -124 113 -120
125 2 7 6 12 8 10 2 -2 115 -112 251 -245z"/>
<path d="M5248 4605 c-2 -3 -36 -16 -74 -30 -38 -13 -63 -24 -55 -25 18 0 133
40 146 52 5 5 5 8 -1 8 -6 0 -13 -2 -16 -5z"/>
<path d="M5078 4543 c7 -3 16 -2 19 1 4 3 -2 6 -13 5 -11 0 -14 -3 -6 -6z"/>
<path d="M4930 4515 c-83 -17 -98 -22 -73 -26 18 -3 30 -3 28 1 -6 9 135 31
147 24 6 -4 8 -2 4 4 -3 6 2 13 11 15 48 13 -23 2 -117 -18z"/>
<path d="M5937 4493 c33 -33 53 -42 53 -23 0 6 -8 10 -17 10 -9 0 -29 10 -43
23 -14 12 -11 7 7 -10z"/>
<path d="M5829 4503 c-13 -16 -12 -17 4 -4 16 13 21 21 13 21 -2 0 -10 -8 -17
-17z"/>
<path d="M2907 4503 c18 -2 50 -2 70 0 21 2 7 4 -32 4 -38 0 -55 -2 -38 -4z"/>
<path d="M4378 4483 c7 -3 16 -2 19 1 4 3 -2 6 -13 5 -11 0 -14 -3 -6 -6z"/>
<path d="M4600 4480 l-145 -6 140 -1 c77 -1 158 2 180 6 l40 9 -35 -1 c-19 -1
-100 -4 -180 -7z"/>
<path d="M6354 4265 c-10 -8 -14 -14 -9 -14 6 0 19 6 29 14 11 8 15 15 10 15
-6 0 -19 -7 -30 -15z"/>
<path d="M6425 4170 c3 -5 8 -10 11 -10 2 0 4 5 4 10 0 6 -5 10 -11 10 -5 0
-7 -4 -4 -10z"/>
<path d="M4950 3535 c-108 -54 -223 -95 -425 -150 -88 -24 -152 -44 -143 -44
13 -1 17 -9 16 -33 0 -18 0 -198 1 -400 l1 -368 23 -1 c61 -3 -321 -66 -533
-88 -350 -37 -993 -52 -1389 -32 -521 26 -948 86 -1243 176 -62 18 -114 32
-116 30 -4 -4 222 -78 320 -104 235 -63 634 -121 1008 -147 296 -20 307 -22
307 -39 0 -8 -5 -15 -11 -15 -7 0 -7 -3 -1 -8 15 -11 13 -182 -2 -182 -25 0
-12 -29 15 -33 70 -11 -185 -5 -371 8 -424 30 -663 67 -985 151 -314 83 -520
203 -538 314 l-7 41 -23 -22 c-34 -32 -54 -81 -54 -132 0 -41 5 -51 47 -96
101 -107 288 -186 615 -260 843 -189 2277 -184 3098 10 327 77 551 184 605
290 30 57 17 123 -35 183 -31 34 -31 38 -28 114 l3 80 -40 -28 c-63 -42 -72
-47 -57 -28 10 13 10 17 0 21 -11 4 -10 6 0 6 7 1 10 6 6 13 -5 8 -1 9 12 4
15 -6 17 -5 7 5 -10 10 -13 98 -13 369 0 271 3 359 13 369 6 8 7 11 1 8 -6 -3
-18 3 -28 14 -11 13 -12 19 -4 18 25 -3 35 1 35 16 0 8 -1 15 -1 14 -1 0 -39
-20 -86 -44z m-1173 -1151 c-3 -3 -12 -4 -19 -1 -8 3 -5 6 6 6 11 1 17 -2 13
-5z m-82 -14 c-27 -5 -77 -8 -110 -7 l-60 0 55 7 c30 4 80 7 110 7 l55 0 -50
-7z m32 -26 c-3 -3 -23 -6 -44 -6 -32 0 -34 -2 -15 -9 12 -5 22 -13 22 -19 0
-6 -3 -9 -7 -7 -5 3 -7 -33 -5 -79 3 -78 2 -84 -17 -84 -18 0 -20 8 -23 96 -2
52 1 99 7 105 5 5 27 9 49 9 21 0 37 -3 33 -6z m10 -30 c-3 -3 -12 -4 -19 -1
-8 3 -5 6 6 6 11 1 17 -2 13 -5z m-7 -104 l0 -90 -42 2 c-37 1 -39 2 -10 5
l32 4 0 85 c0 49 4 84 10 84 6 0 10 -37 10 -90z"/>
<path d="M2903 3213 c15 -2 37 -2 50 0 12 2 0 4 -28 4 -27 0 -38 -2 -22 -4z"/>
<path d="M4920 2203 c-107 -49 -250 -97 -420 -142 -63 -16 -106 -31 -95 -31
l20 -1 -20 -9 -20 -9 20 0 c14 -1 16 -4 7 -9 -10 -7 -12 -90 -10 -390 3 -332
1 -382 -12 -386 -8 -3 5 -3 30 -1 90 9 -10 -14 -195 -44 -640 -105 -1535 -119
-2275 -35 -375 42 -767 136 -938 223 -46 24 -71 28 -32 6 14 -8 21 -14 16 -15
-17 0 70 -57 107 -69 20 -7 37 -16 37 -20 0 -4 15 -12 33 -18 17 -6 66 -23
107 -38 41 -15 84 -29 95 -31 11 -2 76 -16 145 -32 251 -58 448 -87 805 -119
251 -22 1044 -25 1280 -5 419 36 699 78 925 138 52 14 118 32 145 39 51 13
206 75 215 86 3 3 20 14 38 23 18 9 30 21 27 26 -4 6 1 7 11 3 11 -4 15 -2 11
4 -4 6 15 22 41 36 26 14 63 42 82 62 l35 36 -68 -45 c-68 -45 -109 -63 -68
-28 21 17 21 22 21 426 1 225 0 409 -2 411 -2 1 -46 -18 -98 -42z"/>
<path d="M4358 2023 c7 -3 16 -2 19 1 4 3 -2 6 -13 5 -11 0 -14 -3 -6 -6z"/>
<path d="M2923 1893 c15 -2 37 -2 50 0 12 2 0 4 -28 4 -27 0 -38 -2 -22 -4z"/>
<path d="M8926 1448 c3 -4 -2 -5 -10 -2 -9 4 -16 1 -16 -6 0 -9 -4 -9 -13 -2
-14 12 -46 -2 -34 -15 14 -13 304 -10 318 4 9 9 7 13 -12 18 -38 9 -238 12
-233 3z"/>
<path d="M0 400 l0 -400 5000 0 5000 0 0 400 0 400 -5000 0 -5000 0 0 -400z
m2192 123 c23 -20 23 -57 1 -74 -15 -11 -16 -11 -5 1 27 31 11 72 -33 83 -19
4 -19 5 -1 6 11 0 28 -6 38 -16z m-69 -8 c-3 -9 -8 -14 -10 -11 -3 3 -2 9 2
15 9 16 15 13 8 -4z m-1760 -114 c22 -61 43 -108 47 -104 4 4 24 56 45 116 21
59 42 107 47 107 11 0 9 -5 -42 -149 -23 -64 -44 -107 -53 -109 -15 -3 -17 0
-67 143 -15 44 -31 88 -36 99 -5 13 -3 17 6 14 8 -2 32 -55 53 -117z m517 89
c0 -23 4 -30 20 -30 11 0 20 -4 20 -10 0 -5 -10 -10 -21 -10 -20 0 -21 -4 -17
-71 3 -55 8 -74 23 -85 21 -16 16 -28 -8 -18 -9 3 -20 19 -26 36 -14 40 -15
218 -1 218 6 0 10 -13 10 -30z m515 16 c24 -11 33 -20 29 -30 -5 -14 -9 -14
-34 -1 -36 18 -61 19 -84 2 -28 -21 -9 -45 49 -62 87 -25 108 -74 54 -127 -29
-29 -33 -30 -90 -25 -68 6 -72 8 -64 29 5 13 12 14 40 5 50 -15 100 1 100 33
0 16 -8 28 -25 36 -87 40 -105 51 -108 67 -14 70 53 106 133 73z m105 -16 c0
-25 4 -30 25 -30 16 0 25 -6 25 -15 0 -9 -9 -15 -25 -15 -25 0 -26 -1 -23 -62
3 -54 6 -64 26 -73 12 -5 22 -13 22 -18 0 -17 -31 -18 -55 -3 -24 16 -25 20
-25 131 0 96 3 115 15 115 10 0 15 -10 15 -30z m482 -32 l3 -62 36 32 c20 18
45 32 55 32 14 0 9 -9 -21 -40 l-39 -40 42 -60 c40 -57 41 -60 20 -60 -16 0
-32 14 -53 45 -16 25 -33 45 -37 45 -5 0 -8 -20 -8 -45 0 -38 -3 -45 -20 -45
-19 0 -20 7 -20 130 0 122 1 130 20 130 16 0 19 -8 22 -62z m193 30 c1 -20 -2
-24 -11 -17 -8 7 -14 6 -17 -3 -3 -7 -6 2 -6 20 -1 27 3 33 17 30 11 -2 17
-13 17 -30z m-44 -35 c13 -16 12 -17 -3 -4 -17 13 -22 21 -14 21 2 0 10 -8 17
-17z m-1504 -15 c15 -14 23 -33 23 -55 l0 -33 -65 0 c-72 0 -83 -12 -44 -51
17 -17 30 -20 65 -16 43 4 59 -5 28 -17 -45 -17 -106 3 -123 41 -44 96 45 197
116 131z m193 12 c17 -11 10 -13 -40 -10 -47 2 -75 -28 -75 -80 0 -55 26 -80
82 -80 27 0 42 -4 38 -10 -8 -13 -71 -13 -96 0 -53 29 -61 119 -14 166 25 25
77 32 105 14z m265 -13 c20 -16 28 -35 32 -69 5 -42 3 -50 -25 -78 -41 -40
-83 -41 -123 -1 -84 85 27 226 116 148z m85 7 c0 -14 2 -14 22 0 24 17 38 20
38 9 0 -5 -14 -16 -30 -25 -29 -17 -30 -19 -30 -93 0 -43 -4 -75 -10 -75 -6 0
-10 40 -10 100 0 60 4 100 10 100 6 0 10 -7 10 -16z m545 -9 c20 -19 25 -34
25 -75 0 -63 -30 -100 -82 -100 -67 0 -107 62 -87 135 18 66 97 88 144 40z
m184 16 c21 -13 3 -32 -24 -25 -52 13 -88 -41 -64 -98 11 -28 36 -40 74 -35
12 1 20 -4 20 -13 0 -10 -12 -16 -38 -18 -73 -6 -120 77 -86 152 18 39 83 59
118 37z m5460 -94 c8 -26 17 -47 21 -47 4 0 13 21 21 47 8 25 20 48 26 50 13
5 -22 -113 -38 -131 -12 -14 -18 -5 -45 69 -16 44 -20 65 -12 63 7 -3 19 -26
27 -51z m638 38 c2 -6 -9 -11 -23 -10 -39 0 -42 -23 -5 -36 34 -12 49 -43 31
-64 -13 -16 -38 -19 -64 -9 -27 10 -18 22 15 20 43 -2 49 22 10 35 -34 12 -49
43 -30 65 13 16 60 15 66 -1z m333 -20 c0 -35 16 -47 26 -20 4 8 13 15 22 15
13 0 13 -3 -2 -19 -16 -18 -16 -21 -1 -50 9 -18 11 -31 5 -31 -6 0 -16 11 -22
25 -6 14 -15 25 -20 25 -4 0 -8 -11 -8 -25 0 -14 -4 -25 -10 -25 -6 0 -10 30
-10 70 0 40 4 70 10 70 6 0 10 -16 10 -35z m580 32 c0 -4 -34 -104 -45 -136
-3 -8 -8 -11 -11 -8 -8 7 38 147 48 147 4 0 8 -2 8 -3z m110 -7 c0 -5 -11 -10
-25 -10 -14 0 -29 -8 -35 -20 -10 -19 -9 -20 12 -15 36 9 65 -27 50 -60 -22
-47 -92 -20 -92 35 0 37 35 80 66 80 13 0 24 -4 24 -10z m97 -2 c14 -23 12
-106 -2 -118 -33 -27 -86 8 -70 46 4 11 7 27 6 37 -5 38 47 64 66 35z m125
-40 c2 -29 2 -61 0 -70 -5 -22 -22 -24 -22 -3 0 10 -10 15 -30 15 -16 0 -30 3
-30 6 0 16 56 104 67 104 6 0 13 -22 15 -52z m118 42 c0 -5 -11 -10 -25 -10
-32 0 -32 -16 -1 -24 27 -7 41 -35 31 -65 -7 -23 -37 -35 -65 -26 -31 10 -24
23 13 21 28 -1 32 2 32 24 0 21 -4 25 -30 24 -29 -1 -30 0 -27 32 4 31 7 34
38 34 19 0 34 -4 34 -10z m107 -2 c14 -23 12 -106 -2 -118 -33 -27 -86 8 -70
46 4 11 7 27 6 37 -5 38 47 64 66 35z m123 -7 c-5 -11 -15 -23 -20 -26 -6 -4
-1 -14 12 -25 20 -15 21 -21 10 -44 -11 -26 -34 -32 -66 -20 -28 11 -17 24 14
18 22 -5 31 -2 36 11 6 16 -3 28 -31 39 -6 2 -5 9 3 17 18 19 15 29 -8 29 -11
0 -20 5 -20 10 0 6 18 10 40 10 37 0 40 -2 30 -19z m102 2 c39 -35 8 -122 -44
-123 -10 0 -18 5 -18 10 0 6 9 10 20 10 10 0 24 9 31 21 9 18 8 20 -9 15 -38
-12 -68 44 -40 72 17 17 38 15 60 -5z m-1992 -28 c9 -10 9 -15 1 -15 -15 0
-14 -57 2 -63 6 -2 9 -7 6 -11 -15 -17 -37 8 -41 47 -7 58 5 74 32 42z m360 0
c9 -10 9 -15 1 -15 -15 0 -14 -57 2 -63 6 -2 9 -7 6 -11 -15 -17 -37 8 -41 47
-7 58 5 74 32 42z m-532 -7 c23 -23 13 -38 -24 -38 -46 0 -41 -23 7 -30 27 -4
30 -7 16 -13 -28 -11 -44 -9 -61 9 -32 31 -14 84 29 84 12 0 26 -5 33 -12z
m109 5 c14 -6 10 -9 -17 -13 -29 -4 -35 -9 -35 -30 0 -21 5 -26 33 -28 36 -4
34 -22 -3 -22 -28 0 -55 24 -55 50 0 22 25 50 45 50 7 0 22 -3 32 -7z m177 -9
c31 -30 9 -84 -34 -84 -24 0 -50 26 -50 50 0 24 26 50 50 50 10 0 26 -7 34
-16z m86 6 c0 -4 -7 -10 -15 -14 -9 -3 -15 -19 -15 -41 0 -19 -4 -35 -10 -35
-5 0 -10 22 -10 49 0 45 2 49 25 49 14 0 25 -4 25 -8z m274 -6 c31 -30 9 -84
-34 -84 -24 0 -50 26 -50 50 0 24 26 50 50 50 10 0 26 -7 34 -16z m113 9 c14
-6 10 -9 -17 -13 -29 -4 -35 -9 -35 -30 0 -21 6 -26 35 -30 27 -4 31 -7 17
-13 -10 -4 -25 -7 -32 -7 -20 0 -45 28 -45 50 0 22 25 50 45 50 7 0 22 -3 32
-7z m250 0 c14 -6 10 -9 -17 -13 -29 -4 -35 -9 -35 -30 0 -21 5 -26 33 -28 36
-4 34 -22 -3 -22 -28 0 -55 24 -55 50 0 22 25 50 45 50 7 0 22 -3 32 -7z m107
-9 c21 -20 20 -43 -1 -66 -20 -22 -46 -23 -67 -2 -31 30 -9 84 34 84 10 0 26
-7 34 -16z m116 3 c0 -8 3 -8 12 1 17 17 45 15 52 -4 10 -25 7 -84 -4 -84 -5
0 -10 18 -10 41 0 33 -3 40 -17 37 -13 -2 -19 -14 -21 -41 -4 -50 -22 -47 -22
4 0 36 -2 40 -22 37 -19 -2 -24 -10 -26 -40 -5 -55 -22 -47 -22 10 l0 48 40 1
c24 1 40 -3 40 -10z m-330 -77 c0 -5 -4 -10 -10 -10 -5 0 -10 5 -10 10 0 6 5
10 10 10 6 0 10 -4 10 -10z"/>
<path d="M2150 500 c0 -5 5 -10 10 -10 6 0 10 5 10 10 0 6 -4 10 -10 10 -5 0
-10 -4 -10 -10z"/>
<path d="M536 418 c-28 -39 -21 -48 39 -48 59 0 67 9 45 51 -15 27 -64 25 -84
-3z"/>
<path d="M986 424 c-50 -50 -21 -144 44 -144 48 0 80 50 66 104 -13 53 -75 75
-110 40z"/>
<path d="M1616 408 c-31 -43 -9 -118 35 -118 28 0 59 36 59 68 0 38 -26 72
-55 72 -13 0 -31 -10 -39 -22z"/>
<path d="M8954 325 c-4 -9 -2 -21 4 -27 16 -16 47 -5 47 17 0 26 -42 34 -51
10z"/>
<path d="M9072 373 c4 -21 33 -25 33 -3 0 8 -8 16 -18 18 -14 3 -18 -1 -15
-15z"/>
<path d="M9064 325 c-8 -21 10 -39 30 -32 22 9 20 24 -4 37 -16 9 -22 8 -26
-5z"/>
<path d="M9197 350 c-18 -29 -18 -30 2 -30 17 0 21 6 21 30 0 17 -1 30 -3 30
-1 0 -11 -13 -20 -30z"/>
<path d="M9422 374 c2 -11 11 -20 22 -22 13 -3 17 1 14 14 -2 11 -11 20 -22
22 -13 3 -17 -1 -14 -14z"/>
<path d="M9414 325 c-8 -21 10 -39 30 -32 22 9 20 24 -4 37 -16 9 -22 8 -26
-5z"/>
<path d="M9644 375 c-7 -18 3 -35 21 -35 18 0 26 15 19 34 -8 20 -33 21 -40 1z"/>
<path d="M7475 340 c-4 -6 5 -10 19 -10 14 0 26 5 26 10 0 6 -9 10 -19 10 -11
0 -23 -4 -26 -10z"/>
<path d="M7754 336 c-10 -26 4 -48 28 -44 17 2 23 10 23 28 0 18 -6 26 -23 28
-13 2 -25 -3 -28 -12z"/>
<path d="M8114 336 c-10 -26 4 -48 28 -44 17 2 23 10 23 28 0 18 -6 26 -23 28
-13 2 -25 -3 -28 -12z"/>
<path d="M8584 336 c-10 -26 4 -48 28 -44 17 2 23 10 23 28 0 18 -6 26 -23 28
-13 2 -25 -3 -28 -12z"/>
</g>
</svg>
